<svg width="178" height="90" viewBox="0 0 178 90" fill="none" xmlns="http://www.w3.org/2000/svg">
<g clip-path="url(#clip0_115_808)">
<path d="M32.8434 2.52769C35.3969 0.974849 38.6031 0.974851 41.1566 2.52769L70.1566 20.1628C72.5432 21.6141 74 24.205 74 26.9982V63.0018C74 65.795 72.5432 68.3859 70.1566 69.8372L41.1566 87.4723C38.6031 89.0251 35.3969 89.0251 32.8434 87.4723L3.84335 69.8372C1.45681 68.3859 0 65.795 0 63.0018V26.9982C0 24.205 1.45681 21.6141 3.84335 20.1628L32.8434 2.52769Z" fill="#EFEFEF"/>
<g clip-path="url(#clip1_115_808)">
<path d="M135.696 52.1028H102.806V43.9417H135.696V52.1028ZM104.683 50.2344H133.819V45.8101H104.683V50.2344Z" fill="#F9572B"/>
<path d="M135.696 42.9852H102.806V34.824H135.696V42.9852ZM104.683 41.1168H133.819V36.6924H104.683V41.1168Z" fill="#F9572B"/>
<path d="M135.696 33.8673H102.806V25.7024H135.696V33.8636V33.8673ZM104.683 31.9989H133.819V27.5745H104.683V31.9989Z" fill="#F9572B"/>
<path d="M178 52.1028H144.359V43.9417H178V52.1028ZM146.236 50.2344H176.123V45.8101H146.236V50.2344Z" fill="#F9572B"/>
<path d="M178 42.9852H144.359V34.824H178V42.9852ZM146.236 41.1168H176.123V36.6924H146.236V41.1168Z" fill="#F9572B"/>
<path d="M178 33.8673H144.359V25.7024H178V33.8636V33.8673ZM146.236 31.9989H176.123V27.5745H146.236V31.9989Z" fill="#F9572B"/>
<path d="M161.728 65.9591L161.716 64.0907L163.026 64.0832L167.219 58.9227V55.8697L162.396 55.8809L162.388 54.0125L169.096 53.9976V59.5804L163.931 65.9441L161.728 65.9591Z" fill="#1A4D70"/>
<path d="M85.6739 71C80.9855 71 77.168 67.1996 77.168 62.5249C77.168 57.8501 80.9817 54.0012 85.6739 54.0012C90.366 54.0012 94.1798 57.824 94.1798 62.5249C94.1798 67.2258 90.366 71 85.6739 71ZM85.6739 55.8696C82.0178 55.8696 79.0448 58.8553 79.0448 62.5249C79.0448 66.1944 82.0178 69.1316 85.6739 69.1316C89.33 69.1316 92.3029 66.1683 92.3029 62.5249C92.3029 58.8815 89.33 55.8696 85.6739 55.8696Z" fill="#1A4D70"/>
<path d="M132.141 71C127.453 71 123.635 67.1996 123.635 62.5249C123.635 57.8501 127.449 54.0012 132.141 54.0012C136.833 54.0012 140.647 57.824 140.647 62.5249C140.647 67.2258 136.833 71 132.141 71ZM132.141 55.8696C128.485 55.8696 125.512 58.8553 125.512 62.5249C125.512 66.1944 128.485 69.1316 132.141 69.1316C135.797 69.1316 138.77 66.1683 138.77 62.5249C138.77 58.8815 135.797 55.8696 132.141 55.8696Z" fill="#1A4D70"/>
<path d="M151.514 71C146.825 71 143.008 67.1996 143.008 62.5249C143.008 57.8501 146.822 54.0012 151.514 54.0012C156.206 54.0012 160.02 57.824 160.02 62.5249C160.02 67.2258 156.206 71 151.514 71ZM151.514 55.8696C147.858 55.8696 144.885 58.8553 144.885 62.5249C144.885 66.1944 147.858 69.1316 151.514 69.1316C155.17 69.1316 158.143 66.1683 158.143 62.5249C158.143 58.8815 155.17 55.8696 151.514 55.8696Z" fill="#1A4D70"/>
<path d="M121.263 64.0906H96.7212V65.959H121.263V64.0906Z" fill="#1A4D70"/>
<path d="M89.2287 30.3583V36.9799L83.0051 37.9852L81.5299 38.2243L81.4323 39.7078L81.132 44.263H76.8753C77.9338 40.2497 81.2859 32.649 82.5697 30.3621H89.225M91.1018 28.4937H81.6237C80.9931 28.4937 74.6719 42.3497 74.6719 46.1314H82.8887L83.3054 39.8311L91.1018 38.5718V28.4937Z" fill="#1A4D70"/>
<path d="M142.768 52.1029H137.659V20H142.768V52.1029ZM139.536 50.2345H140.891V21.8684H139.536V50.2345Z" fill="#1A4D70"/>
<path d="M75.4075 65.959H65.7755C64.7958 65.959 64 65.1668 64 64.1915V59.7709C64 58.7955 64.7958 58.0071 65.7755 58.0071H66.1546C66.1509 56.7739 66.1359 55.5894 66.1246 54.416C66.0908 51.1014 66.057 47.97 66.1959 44.0501L66.2034 43.9679C66.56 41.1167 67.7687 38.7849 70.2274 36.2215C71.4248 30.9787 72.9226 27.2344 74.8032 24.7756C77.1455 21.7152 79.668 21.2593 80.9592 21.2593H98.2488V54.0124H121.267V55.8808H96.3719V23.1277H80.9592C80.0133 23.1277 78.1477 23.4902 76.2934 25.9079C74.5742 28.1537 73.129 31.8457 71.9991 36.8829L71.9428 37.1407L71.7552 37.3313C69.4917 39.6444 68.3881 41.6884 68.069 44.1547C67.9339 48.0148 67.9677 51.1127 68.0014 54.3936C68.0165 55.8696 68.0315 57.3606 68.0315 58.9413V59.8755H65.8769V64.0906H75.4075V65.959Z" fill="#1A4D70"/>
</g>
<path d="M39.6802 29.04V59H36.4802V31.6L28.8002 40.04L26.6802 38.08L34.9602 29.04H39.6802Z" fill="#1A4D70"/>
</g>
<defs>
<clipPath id="clip0_115_808">
<rect width="178" height="90" fill="white"/>
</clipPath>
<clipPath id="clip1_115_808">
<rect width="114" height="51" fill="white" transform="translate(64 20)"/>
</clipPath>
</defs>
</svg>
