<svg width="152" height="90" viewBox="0 0 152 90" fill="none" xmlns="http://www.w3.org/2000/svg">
<g clip-path="url(#clip0_115_832)">
<path d="M32.8434 2.52769C35.3969 0.974849 38.6031 0.974851 41.1566 2.52769L70.1566 20.1628C72.5432 21.6141 74 24.205 74 26.9982V63.0018C74 65.795 72.5432 68.3859 70.1566 69.8372L41.1566 87.4723C38.6031 89.0251 35.3969 89.0251 32.8434 87.4723L3.84335 69.8372C1.45681 68.3859 0 65.795 0 63.0018V26.9982C0 24.205 1.45681 21.6141 3.84335 20.1628L32.8434 2.52769Z" fill="#EFEFEF"/>
<g clip-path="url(#clip1_115_832)">
<path d="M129.136 13.6861C117.411 14.1601 108.099 23.813 108.099 35.601C108.099 43.4658 112.264 50.4909 118.707 54.3766V75.4181C118.707 76.1646 119.566 76.6237 120.186 76.131L129.132 69.4531V83.156L69.8229 83.0664V6.82531H129.136V13.6861ZM120.519 55.3658C126.525 58.2475 133.574 58.2475 139.565 55.3658V73.5965L130.619 66.9186C130.272 66.6461 129.816 66.6461 129.469 66.9186L120.522 73.5965V55.3658H120.519ZM141.41 54.3804C153.569 47.0269 155.668 30.181 145.572 20.0915C141.81 16.3139 136.659 13.925 130.963 13.6861V5.91079C130.963 5.41807 130.559 5 130.051 5H68.9152C68.4221 5 68.0038 5.40314 68.0038 5.91079V83.9959C68.0038 84.4886 68.4072 84.9067 68.9152 84.9067L130.051 84.9963C130.544 84.9963 130.963 84.5931 130.963 84.0855V69.4494L139.946 76.1646C140.548 76.62 141.407 76.1646 141.407 75.433V54.3729L141.41 54.3804ZM115.805 21.368C123.656 13.5218 136.401 13.5218 144.272 21.368C152.127 29.2329 152.127 41.9541 144.272 49.819C136.401 57.6838 123.675 57.6838 115.805 49.819C107.953 41.9727 107.953 29.2367 115.805 21.3718V21.368Z" fill="#1A4D70"/>
<path d="M123.376 35.0896C122.775 34.0481 124.362 33.1374 124.945 34.1788L127.447 38.52L136.248 29.7256C137.088 28.8858 138.384 30.1624 137.544 31.0209L127.903 40.6551C127.485 41.0732 126.771 40.9836 126.461 40.4722L123.376 35.0896Z" fill="#F9572B"/>
<path d="M130.048 21.7898C137.664 21.7898 143.872 27.9749 143.872 35.6046C143.872 43.2344 137.683 49.4195 130.048 49.4195C122.413 49.4195 116.223 43.2344 116.223 35.6046C116.223 27.9749 122.413 21.7898 130.048 21.7898ZM121.576 44.0892C126.249 48.7588 133.846 48.7588 138.523 44.0892C143.2 39.4195 143.215 31.8271 138.523 27.1351C133.832 22.443 126.253 22.4654 121.576 27.1351C116.884 31.8047 116.884 39.3971 121.576 44.0892Z" fill="#F9572B"/>
<path d="M107.113 23.0104C108.319 23.0104 108.319 21.1851 107.113 21.1851H88.9627C87.7562 21.1851 87.7562 23.0104 88.9627 23.0104H107.113Z" fill="#1A4D70"/>
<path d="M109.175 17.5382C110.381 17.5382 110.381 15.7129 109.175 15.7129H88.9591C87.7526 15.7129 87.7526 17.5382 88.9591 17.5382H109.175Z" fill="#1A4D70"/>
<path d="M79.1015 14.2683H81.7312C83.8118 14.2683 85.4927 15.9667 85.4927 18.0458V20.655C85.4927 22.7342 83.8118 24.4326 81.7312 24.4326H79.1015C77.0396 24.4326 75.3401 22.7342 75.3401 20.655V18.0458C75.3401 15.9667 77.021 14.2683 79.1015 14.2683ZM77.148 20.655C77.148 21.73 78.0444 22.6072 79.1015 22.6072H81.7312C82.792 22.6072 83.6661 21.73 83.6661 20.655V18.0458C83.6661 16.9708 82.7883 16.0936 81.7312 16.0936H79.1015C78.0407 16.0936 77.1666 16.9708 77.148 18.0458V20.655Z" fill="#1A4D70"/>
<path d="M102.675 40.0729C103.882 40.0729 103.882 38.2476 102.675 38.2476H88.9628C87.7563 38.2476 87.7563 40.0729 88.9628 40.0729H102.675Z" fill="#1A4D70"/>
<path d="M105.069 34.5968C106.276 34.5968 106.276 32.7715 105.069 32.7715H88.9438C87.7373 32.7715 87.7373 34.5968 88.9438 34.5968H105.069Z" fill="#1A4D70"/>
<path d="M79.1015 31.3682H81.7312C83.8118 31.3682 85.4927 33.0666 85.4927 35.1457V37.7549C85.4927 39.834 83.8118 41.5324 81.7312 41.5324H79.1015C77.0396 41.5324 75.3401 39.834 75.3401 37.7549V35.1457C75.3401 33.0666 77.021 31.3682 79.1015 31.3682ZM77.148 37.7549C77.148 38.8299 78.0444 39.7071 79.1015 39.7071H81.7312C82.792 39.7071 83.6661 38.8112 83.6661 37.7549V35.1457C83.6661 34.0707 82.7883 33.1935 81.7312 33.1935H79.1015C78.0407 33.1935 77.1666 34.0707 77.148 35.1457V37.7549Z" fill="#1A4D70"/>
<path d="M110.728 57.1349C111.935 57.1349 111.935 55.3096 110.728 55.3096H88.944C87.7375 55.3096 87.7375 57.1349 88.944 57.1349H110.728Z" fill="#1A4D70"/>
<path d="M104.976 51.6593C106.182 51.6593 106.182 49.834 104.976 49.834H88.9626C87.7561 49.834 87.7561 51.6593 88.9626 51.6593H104.976Z" fill="#1A4D70"/>
<path d="M79.1015 48.4678H81.7312C83.8118 48.4678 85.4927 50.1662 85.4927 52.2266V54.8545C85.4927 56.915 83.8118 58.6134 81.7312 58.6134H79.1015C77.0396 58.6134 75.3401 56.9336 75.3401 54.8545V52.2266C75.3401 50.1662 77.021 48.4678 79.1015 48.4678ZM77.148 54.8731C77.148 55.9482 78.0444 56.8254 79.1015 56.8254H81.7312C82.792 56.8254 83.6661 55.9295 83.6661 54.8731V52.2453C83.6661 51.1852 82.7883 50.3117 81.7312 50.3117H79.1015C78.0407 50.3117 77.1666 51.1703 77.148 52.2453V54.8731Z" fill="#1A4D70"/>
<path d="M79.1015 65.5637H81.7312C83.8118 65.5637 85.4927 67.2621 85.4927 69.3412V71.9504C85.4927 74.0296 83.8118 75.728 81.7312 75.728H79.1015C77.0396 75.728 75.3401 74.0296 75.3401 71.9504V69.3412C75.3401 67.2621 77.021 65.5637 79.1015 65.5637ZM77.148 71.9504C77.148 73.0255 78.0444 73.9027 79.1015 73.9027H81.7312C82.792 73.9027 83.6661 73.0255 83.6661 71.9504V69.3412C83.6661 68.2662 82.7883 67.389 81.7312 67.389H79.1015C78.0407 67.389 77.1666 68.2849 77.148 69.3412V71.9504Z" fill="#1A4D70"/>
<path d="M88.9437 72.5737C87.7372 72.5737 87.7372 74.399 88.9437 74.399H106.731C107.938 74.399 107.938 72.5737 106.731 72.5737H88.9437Z" fill="#1A4D70"/>
<path d="M88.944 66.896C87.7375 66.896 87.7375 68.7213 88.944 68.7213H100.027C101.233 68.7213 101.233 66.896 100.027 66.896H88.944Z" fill="#1A4D70"/>
</g>
<path d="M48.0399 55.08V58H26.4399V52.4C26.4399 45.4 30.7199 44.48 37.0799 43.92C43.8399 43.32 44.7199 42.08 44.7199 37.24C44.7199 32.52 42.8399 30.64 37.4399 30.64C30.9999 30.64 29.6399 32.84 29.6399 37V38.24H26.4399C26.4399 30.24 28.9199 27.72 37.5199 27.72C44.7599 27.72 48.0399 30.24 48.0399 37.28C48.0399 44.84 45.4799 46.04 37.9599 46.84C30.7999 47.6 29.6399 48.56 29.6399 52.72V55.08H48.0399Z" fill="#1A4D70"/>
</g>
<defs>
<clipPath id="clip0_115_832">
<rect width="152" height="90" fill="white"/>
</clipPath>
<clipPath id="clip1_115_832">
<rect width="84" height="80" fill="white" transform="matrix(-1 0 0 1 152 5)"/>
</clipPath>
</defs>
</svg>
